<?xml version="1.0" standalone="no"?>
 <!DOCTYPE svg PUBLIC "-//W3C//DTD SVG 1.1//EN" 
 "http://www.w3.org/Graphics/SVG/1.1/DTD/svg11.dtd"> 
<svg
  xmlns:svg="http://www.w3.org/2000/svg"
  xmlns="http://www.w3.org/2000/svg"
  xmlns:xlink="http://www.w3.org/1999/xlink"
  version="1.1"
  width="195.9864mm" height="205.9940mm" viewBox="0.0000 0.0000 195.9864 205.9940">
<title>SVG Image created as picokeebs-Edge_Cuts.svg date 2024/03/17 01:09:12 </title>
  <desc>Image generated by PCBNEW </desc>
<g style="fill:#000000; fill-opacity:1.0000;stroke:#000000; stroke-opacity:1.0000;
stroke-linecap:round; stroke-linejoin:round;"
 transform="translate(0 0) scale(1 1)">
</g>
<g style="fill:#000000; fill-opacity:0.0; 
stroke:#000000; stroke-width:0.0000; stroke-opacity:1; 
stroke-linecap:round; stroke-linejoin:round;">
</g>
<g style="fill:#000000; fill-opacity:0.0; 
stroke:#000000; stroke-width:0.0500; stroke-opacity:1; 
stroke-linecap:round; stroke-linejoin:round;">
<path d="M165.7824 67.7574 A6.0000 6.0000 0.0 0 0 171.7824 61.7574" />
<path d="M79.5824 21.5924
L95.5824 21.5924
" />
<path d="M171.7824 19.5924 A6.0000 6.0000 0.0 0 0 165.7824 13.5924" />
<path d="M22.4324 19.5924
L22.4324 61.7574
" />
<circle cx="27.4324" cy="62.7574" r="1.0000" /> 
<path d="M171.7824 19.5924
L171.7824 61.7574
" />
<path d="M97.5824 13.5924 A1.0000 1.0000 0.0 0 0 96.5824 14.5924" />
<circle cx="166.7824" cy="62.7574" r="1.0000" /> 
<circle cx="166.7824" cy="18.5924" r="1.0000" /> 
<path d="M78.5824 14.5924 A1.0000 1.0000 0.0 0 0 77.5824 13.5924" />
<path d="M28.4324 13.5924
L77.5824 13.5924
" />
<path d="M78.5824 20.5924 A1.0000 1.0000 0.0 0 0 79.5824 21.5924" />
<path d="M22.4324 61.7574 A6.0000 6.0000 0.0 0 0 28.4324 67.7574" />
<path d="M95.5824 21.5924 A1.0000 1.0000 0.0 0 0 96.5824 20.5924" />
<path d="M28.4324 13.5924 A6.0000 6.0000 0.0 0 0 22.4324 19.5924" />
<path d="M97.5824 13.5924
L165.7824 13.5924
" />
<path d="M96.5824 20.5924
L96.5824 14.5924
" />
<circle cx="27.4324" cy="18.5924" r="1.0000" /> 
<path d="M78.5824 20.5924
L78.5824 14.5924
" />
<path d="M165.7824 67.7574
L28.4324 67.7574
" />
<path style="fill:#000000; fill-opacity:0.0; 
stroke:#000000; stroke-width:0.0500; stroke-opacity:1; 
stroke-linecap:round; stroke-linejoin:round;fill:none"
d="M 99.6324,82.1824
113.6324,82.1824
113.6324,96.1824
99.6324,96.1824
Z" /> 
<circle cx="144.7324" cy="98.7074" r="1.0000" /> 
<circle cx="166.7824" cy="76.5924" r="1.0000" /> 
<path style="fill:#000000; fill-opacity:0.0; 
stroke:#000000; stroke-width:0.0500; stroke-opacity:1; 
stroke-linecap:round; stroke-linejoin:round;fill:none"
d="M 52.0074,101.2324
66.0074,101.2324
66.0074,115.2324
52.0074,115.2324
Z" /> 
<path style="fill:#000000; fill-opacity:0.0; 
stroke:#000000; stroke-width:0.0500; stroke-opacity:1; 
stroke-linecap:round; stroke-linejoin:round;fill:none"
d="M 42.4824,82.1824
56.4824,82.1824
56.4824,96.1824
42.4824,96.1824
Z" /> 
<path style="fill:#000000; fill-opacity:0.0; 
stroke:#000000; stroke-width:0.0500; stroke-opacity:1; 
stroke-linecap:round; stroke-linejoin:round;fill:none"
d="M 147.2574,101.2324
161.2574,101.2324
161.2574,115.2324
147.2574,115.2324
Z" /> 
<circle cx="49.4824" cy="98.7074" r="1.0000" /> 
<circle cx="166.7824" cy="120.7574" r="1.0000" /> 
<path style="fill:#000000; fill-opacity:0.0; 
stroke:#000000; stroke-width:0.0500; stroke-opacity:1; 
stroke-linecap:round; stroke-linejoin:round;fill:none"
d="M 71.0574,101.2324
85.0574,101.2324
85.0574,115.2324
71.0574,115.2324
Z" /> 
<path d="M95.5824 79.5924 A1.0000 1.0000 0.0 0 0 96.5824 78.5924" />
<path d="M79.5824 79.5924
L95.5824 79.5924
" />
<path style="fill:#000000; fill-opacity:0.0; 
stroke:#000000; stroke-width:0.0500; stroke-opacity:1; 
stroke-linecap:round; stroke-linejoin:round;fill:none"
d="M 61.5324,82.1824
75.5324,82.1824
75.5324,96.1824
61.5324,96.1824
Z" /> 
<path style="fill:#000000; fill-opacity:0.0; 
stroke:#000000; stroke-width:0.0500; stroke-opacity:1; 
stroke-linecap:round; stroke-linejoin:round;fill:none"
d="M 118.6824,82.1824
132.6824,82.1824
132.6824,96.1824
118.6824,96.1824
Z" /> 
<path d="M165.7824 125.7574
L28.4324 125.7574
" />
<path d="M165.7824 125.7574 A6.0000 6.0000 0.0 0 0 171.7824 119.7574" />
<path style="fill:#000000; fill-opacity:0.0; 
stroke:#000000; stroke-width:0.0500; stroke-opacity:1; 
stroke-linecap:round; stroke-linejoin:round;fill:none"
d="M 109.1574,101.2324
123.1574,101.2324
123.1574,115.2324
109.1574,115.2324
Z" /> 
<path d="M171.7824 77.5924 A6.0000 6.0000 0.0 0 0 165.7824 71.5924" />
<path d="M22.4324 119.7574 A6.0000 6.0000 0.0 0 0 28.4324 125.7574" />
<path d="M97.5824 71.5924 A1.0000 1.0000 0.0 0 0 96.5824 72.5924" />
<path d="M78.5824 78.5924
L78.5824 72.5924
" />
<circle cx="106.6324" cy="98.7074" r="1.0000" /> 
<path d="M28.4324 71.5924
L77.5824 71.5924
" />
<path d="M97.5824 71.5924
L165.7824 71.5924
" />
<path style="fill:#000000; fill-opacity:0.0; 
stroke:#000000; stroke-width:0.0500; stroke-opacity:1; 
stroke-linecap:round; stroke-linejoin:round;fill:none"
d="M 137.7324,82.1824
151.7324,82.1824
151.7324,96.1824
137.7324,96.1824
Z" /> 
<path style="fill:#000000; fill-opacity:0.0; 
stroke:#000000; stroke-width:0.0500; stroke-opacity:1; 
stroke-linecap:round; stroke-linejoin:round;fill:none"
d="M 128.2074,101.2324
142.2074,101.2324
142.2074,115.2324
128.2074,115.2324
Z" /> 
<path d="M171.7824 77.5924
L171.7824 119.7574
" />
<path d="M78.5824 72.5924 A1.0000 1.0000 0.0 0 0 77.5824 71.5924" />
<path style="fill:#000000; fill-opacity:0.0; 
stroke:#000000; stroke-width:0.0500; stroke-opacity:1; 
stroke-linecap:round; stroke-linejoin:round;fill:none"
d="M 90.1074,101.2324
104.1074,101.2324
104.1074,115.2324
90.1074,115.2324
Z" /> 
<path style="fill:#000000; fill-opacity:0.0; 
stroke:#000000; stroke-width:0.0500; stroke-opacity:1; 
stroke-linecap:round; stroke-linejoin:round;fill:none"
d="M 32.9574,101.2324
46.9574,101.2324
46.9574,115.2324
32.9574,115.2324
Z" /> 
<path d="M78.5824 78.5924 A1.0000 1.0000 0.0 0 0 79.5824 79.5924" />
<circle cx="27.4324" cy="120.7574" r="1.0000" /> 
<circle cx="27.4324" cy="76.5924" r="1.0000" /> 
<path d="M96.5824 78.5924
L96.5824 72.5924
" />
<path d="M28.4324 71.5924 A6.0000 6.0000 0.0 0 0 22.4324 77.5924" />
<path d="M22.4324 77.5924
L22.4324 119.7574
" />
<g >
</g>
<g >
</g>
<g >
</g>
</g> 
</svg>
